<svg width="220" height="68" viewBox="0 0 220 68" fill="none" xmlns="http://www.w3.org/2000/svg">
    <g filter="url(#filter0_i)">
        <rect width="220" height="68" fill="#EE3643" />
    </g>
    <path fill-rule="evenodd" clip-rule="evenodd" d="M173.694 23.3971V42.2971H170.994V23.3971H166.194V21.2971H178.494V23.3971H173.694ZM163.299 34.5121C162.829 35.1021 162.239 35.5221 161.529 35.7721C160.819 36.0221 159.974 36.1471 158.994 36.1471C158.534 36.1471 158.014 36.1171 157.434 36.0571C156.854 35.9971 156.374 35.9271 155.994 35.8471V42.2971H153.294V21.5971C154.054 21.3771 154.819 21.2221 155.589 21.1321C156.359 21.0421 157.194 20.9971 158.094 20.9971C159.294 20.9971 160.314 21.1221 161.154 21.3721C161.994 21.6221 162.674 22.0371 163.194 22.6171C163.714 23.1971 164.094 23.9671 164.334 24.9271C164.574 25.8871 164.694 27.0771 164.694 28.4971C164.694 29.9571 164.579 31.1771 164.349 32.1571C164.119 33.1371 163.769 33.9221 163.299 34.5121ZM161.769 25.7971C161.619 25.0771 161.384 24.5071 161.064 24.0871C160.744 23.6671 160.339 23.3721 159.849 23.2021C159.359 23.0321 158.774 22.9471 158.094 22.9471H155.994V34.0471H158.094C158.774 34.0471 159.359 33.9621 159.849 33.7921C160.339 33.6221 160.744 33.3271 161.064 32.9071C161.384 32.4871 161.619 31.9171 161.769 31.1971C161.919 30.4771 161.994 29.5771 161.994 28.4971C161.994 27.4171 161.919 26.5171 161.769 25.7971ZM146.544 36.8971H140.544L139.194 42.2971H136.494L141.594 21.2971H145.494L150.594 42.2971H147.894L146.544 36.8971ZM143.604 24.2971H143.484L140.994 34.7971H146.094L143.604 24.2971ZM130.644 26.6971H130.494L126.144 39.5971H123.444L119.094 26.6971H118.944L118.044 42.2971H115.344L116.544 21.2971H119.844L124.734 35.6971H124.854L129.744 21.2971H133.044L134.244 42.2971H131.544L130.644 26.6971ZM110.484 40.3471C109.924 41.1671 109.249 41.7471 108.459 42.0871C107.669 42.4271 106.764 42.5971 105.744 42.5971C104.724 42.5971 103.819 42.4271 103.029 42.0871C102.239 41.7471 101.564 41.1671 101.004 40.3471C100.444 39.5271 100.019 38.4221 99.729 37.0321C99.439 35.6421 99.294 33.8971 99.294 31.7971C99.294 29.6971 99.439 27.9521 99.729 26.5621C100.019 25.1721 100.444 24.0671 101.004 23.2471C101.564 22.4271 102.239 21.8471 103.029 21.5071C103.819 21.1671 104.724 20.9971 105.744 20.9971C106.764 20.9971 107.669 21.1671 108.459 21.5071C109.249 21.8471 109.924 22.4271 110.484 23.2471C111.044 24.0671 111.469 25.1721 111.759 26.5621C112.049 27.9521 112.194 29.6971 112.194 31.7971C112.194 33.8971 112.049 35.6421 111.759 37.0321C111.469 38.4221 111.044 39.5271 110.484 40.3471ZM109.179 27.3571C108.969 26.1971 108.694 25.2771 108.354 24.5971C108.014 23.9171 107.614 23.4471 107.154 23.1871C106.694 22.9271 106.224 22.7971 105.744 22.7971C105.264 22.7971 104.794 22.9271 104.334 23.1871C103.874 23.4471 103.474 23.9171 103.134 24.5971C102.794 25.2771 102.519 26.1971 102.309 27.3571C102.099 28.5171 101.994 29.9971 101.994 31.7971C101.994 33.5971 102.099 35.0771 102.309 36.2371C102.519 37.3971 102.794 38.3171 103.134 38.9971C103.474 39.6771 103.874 40.1471 104.334 40.4071C104.794 40.6671 105.264 40.7971 105.744 40.7971C106.224 40.7971 106.694 40.6671 107.154 40.4071C107.614 40.1471 108.014 39.6771 108.354 38.9971C108.694 38.3171 108.969 37.3971 109.179 36.2371C109.389 35.0771 109.494 33.5971 109.494 31.7971C109.494 29.9971 109.389 28.5171 109.179 27.3571ZM92.994 32.6971H86.694V42.2971H83.994V21.2971H86.694V30.5971H92.994V21.2971H95.694V42.2971H92.994V32.6971ZM78.745 42.2971L74.995 33.2971L71.245 42.2971H68.545L73.045 31.4971L68.995 21.2971H71.695L74.995 29.6971L78.295 21.2971H80.995L76.945 31.4971L81.445 42.2971H78.745ZM56.695 21.2971H66.895V23.3971H59.395V30.2971H65.995V32.3971H59.395V40.1971H66.895V42.2971H56.695V21.2971ZM49.495 42.2971H46.795V23.3971H41.995V21.2971H54.295V23.3971H49.495V42.2971Z" fill="white" />
    <defs>
        <filter id="filter0_i" x="0" y="0" width="220" height="68" filterUnits="userSpaceOnUse" color-interpolation-filters="sRGB">
            <feFlood flood-opacity="0" result="BackgroundImageFix" />
            <feBlend mode="normal" in="SourceGraphic" in2="BackgroundImageFix" result="shape" />
            <feColorMatrix in="SourceAlpha" type="matrix" values="0 0 0 0 0 0 0 0 0 0 0 0 0 0 0 0 0 0 127 0" result="hardAlpha" />
            <feOffset dy="-5" />
            <feComposite in2="hardAlpha" operator="arithmetic" k2="-1" k3="1" />
            <feColorMatrix type="matrix" values="0 0 0 0 0 0 0 0 0 0 0 0 0 0 0 0 0 0 0.24 0" />
            <feBlend mode="normal" in2="shape" result="effect1_innerShadow" />
        </filter>
    </defs>
</svg>
